<svg width="597" height="84" viewBox="0 0 597 84" fill="none" xmlns="http://www.w3.org/2000/svg">
<path d="M41.2547 32.0639H21.8043V62.499C21.8043 65.0632 22.4711 67.1812 24.0272 68.7421C25.4721 70.3029 27.3616 71.0833 29.8068 71.0833H41.2547V82.1202H29.3623C23.3604 82.1202 18.5812 80.3364 15.1357 76.7689C11.579 73.3129 9.8007 68.5191 9.8007 62.499V32.0639H0.242188V21.2501H9.8007V0.848511H21.8043V21.2501H41.2547V32.0639Z" fill="white"/>
<path d="M102.643 51.3507V55.4755H54.6285C55.2955 60.6038 57.2961 64.7286 60.4081 67.7387C63.5202 70.7488 67.6325 72.3096 72.634 72.3096C76.3019 72.3096 79.4138 71.4178 82.0813 69.7454C84.7489 68.0732 86.8605 65.732 88.1943 62.7219C88.7501 61.4956 89.0834 60.9382 89.0834 60.9382L100.643 64.3943C98.5309 70.3029 95.0852 74.8737 90.1949 78.2181C85.4157 81.5627 79.5251 83.1235 72.634 83.1235C63.409 83.1235 55.9623 80.3364 50.6273 74.5392C45.1812 68.6307 42.4026 61.0497 42.4026 51.5737C42.4026 41.8744 45.1812 34.0705 50.6273 28.2736C56.0733 22.3648 63.409 19.4663 72.634 19.4663C81.748 19.4663 89.0834 22.3648 94.5297 28.3849C99.7534 34.1821 102.532 41.8744 102.643 51.3507ZM55.073 44.8845H90.1949C89.1946 40.4252 87.0828 36.8577 83.9708 34.1821C80.9699 31.5066 77.191 30.2803 72.634 30.2803C67.966 30.2803 64.0758 31.5066 61.0749 34.1821C58.074 36.7463 56.0733 40.4252 55.073 44.8845Z" fill="white"/>
<path d="M111.861 67.9617C109.638 63.2794 108.527 58.2626 108.527 52.2425C108.527 42.3205 111.083 34.4051 116.307 28.6079C121.42 22.8107 128.533 19.9122 137.758 19.9122C144.76 19.9122 150.651 21.696 155.43 25.2635C160.209 28.8308 163.432 33.9592 165.211 40.6481L153.541 43.6582C153.541 43.6582 153.318 42.7664 152.651 41.2056C149.984 34.1821 144.982 30.7262 137.758 30.7262C132.201 30.7262 127.866 32.6213 124.865 36.5234C121.975 40.4252 120.531 45.6649 120.531 52.2425C120.531 58.3742 121.975 62.8335 125.087 66.624C128.089 70.4144 132.312 72.3096 137.758 72.3096C145.316 72.3096 150.429 68.5191 153.096 61.0497C153.318 60.2693 153.874 58.4856 153.874 58.4856L165.655 61.0497C163.988 68.1846 160.766 73.7588 155.875 77.5493C150.873 81.3398 144.871 83.1235 137.758 83.1235C131.534 83.1235 126.31 81.7857 121.864 79.1101C117.418 76.323 114.084 72.6441 111.861 67.9617Z" fill="white"/>
<path d="M187.121 46.7798V82.1202H175.229V0.848511H187.121V28.2736C191.566 22.6994 197.345 19.9122 204.459 19.9122C220.242 19.9122 228.133 28.6079 228.133 46.2224V82.1202H216.241V46.7798C216.241 41.2056 215.241 37.1922 213.462 34.628C211.683 31.9525 208.35 30.7262 203.569 30.7262C198.347 30.7262 194.345 32.0638 191.456 34.851C188.565 37.6381 187.121 41.6515 187.121 46.7798Z" fill="white"/>
<path d="M284.078 26.4898C287.857 30.8376 289.859 37.4151 289.859 45.9994V82.1202H277.854V46.5569C277.854 40.9827 276.965 36.9693 275.188 34.4051C273.409 31.7295 270.074 30.5032 265.295 30.5032C260.183 30.5032 256.292 31.8409 253.736 34.628C251.069 37.4151 249.734 41.4286 249.734 46.5569V82.1202H237.842V21.027H248.847V28.9424C253.069 22.9223 258.85 19.9122 266.184 19.9122C274.298 19.9122 280.189 22.1419 284.078 26.4898Z" fill="white"/>
<path d="M325.522 83.1235C316.631 83.1235 309.405 80.3364 304.182 74.5392C298.958 68.8536 296.402 61.4956 296.402 51.685C296.402 41.8744 298.958 34.1821 304.182 28.385C309.405 22.6993 316.631 19.9122 325.522 19.9122C334.525 19.9122 341.639 22.6993 346.861 28.4965C352.085 34.1821 354.754 41.986 354.754 51.685C354.754 61.4956 352.085 68.8536 346.861 74.5392C341.639 80.3364 334.525 83.1235 325.522 83.1235ZM312.852 36.3004C309.851 40.0907 308.295 45.219 308.295 51.685C308.295 58.2626 309.851 62.9449 312.852 66.624C315.852 70.4144 320.077 72.3096 325.522 72.3096C330.967 72.3096 335.192 70.4144 338.193 66.624C341.305 62.8335 342.749 58.1511 342.749 51.685C342.749 45.219 341.305 40.0907 338.193 36.4118C335.192 32.5099 330.967 30.6146 325.522 30.6146C320.077 30.6146 315.852 32.5099 312.852 36.3004Z" fill="white"/>
<path d="M477.786 21.817H489.678V82.6873H478.673V74.2146C473.451 80.6806 467.114 83.9136 459.557 83.9136C450.889 83.9136 443.998 81.0149 438.884 75.3293C433.883 69.6437 431.327 62.1743 431.327 52.5867C431.327 42.5531 433.772 34.7492 438.661 29.175C443.552 23.4894 450.443 20.7023 459.446 20.7023C466.781 20.7023 472.895 23.1549 477.786 28.1716V21.817ZM477.786 52.5867V51.6947C477.786 45.2287 476.117 40.2119 473.005 36.6444C469.783 33.077 465.448 31.2933 460.113 31.2933C454.668 31.2933 450.554 33.1884 447.664 36.8673C444.775 40.6578 443.329 45.7861 443.329 52.3637C443.329 58.8297 444.775 63.7349 447.887 67.5254C450.889 71.3159 455.111 73.2112 460.557 73.2112C466.004 73.2112 470.226 71.4274 473.228 67.8599C476.23 64.2924 477.786 59.2756 477.786 52.5867Z" fill="white"/>
<path d="M534.999 32.8539H515.549V63.289C515.549 65.8532 516.216 67.9715 517.772 69.5321C519.217 71.0929 521.107 71.8733 523.552 71.8733H534.999V82.9102H523.106C517.105 82.9102 512.326 81.1265 508.881 77.5589C505.323 74.103 503.546 69.3091 503.546 63.289V32.8539H493.987V22.0401H503.546V1.63855H515.549V22.0401H534.999V32.8539Z" fill="white"/>
<path d="M596.389 52.1408V56.2656H548.374C549.04 61.3939 551.04 65.5187 554.152 68.5288C557.264 71.5388 561.378 73.0996 566.38 73.0996C570.046 73.0996 573.158 72.2079 575.827 70.5355C578.493 68.8633 580.605 66.5221 581.939 63.512C582.495 62.2857 582.828 61.7282 582.828 61.7282L594.387 65.1844C592.275 71.0929 588.83 75.6638 583.941 79.0082C579.16 82.3528 573.271 83.9136 566.38 83.9136C557.154 83.9136 549.707 81.1265 544.372 75.3293C538.927 69.4208 536.148 61.8398 536.148 52.3637C536.148 42.6645 538.927 34.8606 544.372 29.0637C549.819 23.1549 557.154 20.2564 566.38 20.2564C575.494 20.2564 582.828 23.1549 588.275 29.175C593.498 34.9722 596.277 42.6645 596.389 52.1408ZM548.817 45.6746H583.941C582.939 41.2153 580.828 37.6477 577.716 34.9722C574.714 32.2967 570.936 31.0704 566.38 31.0704C561.712 31.0704 557.821 32.2967 554.821 34.9722C551.819 37.5364 549.819 41.2153 548.817 45.6746Z" fill="white"/>
<path d="M347.789 1.63959H372.163L407.429 82.2695H383.054L347.789 1.63959Z" fill="url(#paint0_linear_65_335)"/>
<path d="M413.142 1.63959H437.516L415.144 52.792L414.23 50.9323C406.636 35.4671 406.237 17.4268 413.142 1.63959Z" fill="url(#paint1_linear_65_335)"/>
<defs>
<linearGradient id="paint0_linear_65_335" x1="377.608" y1="1.63959" x2="377.608" y2="82.2695" gradientUnits="userSpaceOnUse">
<stop stop-color="#A0D2D1"/>
<stop offset="1" stop-color="#229F9B"/>
</linearGradient>
<linearGradient id="paint1_linear_65_335" x1="422.875" y1="1.63959" x2="422.875" y2="52.792" gradientUnits="userSpaceOnUse">
<stop stop-color="#A0D2D1"/>
<stop offset="1" stop-color="#229F9B"/>
</linearGradient>
</defs>
</svg>
