<svg xmlns="http://www.w3.org/2000/svg" fill="none" viewBox="396.38 488.4 5354.32 743.78">
<path d="M764.739 767.908H590.044V1040.43C590.044 1063.39 596.034 1082.36 610.009 1096.33C622.987 1110.31 639.957 1117.3 661.918 1117.3H764.739V1216.12H657.925C604.02 1216.12 561.095 1200.15 530.149 1168.21C498.205 1137.26 482.233 1094.34 482.233 1040.43V767.908H396.383V671.077H482.233V488.396H590.044V671.077H764.739V767.908Z" fill="white"/>
<path d="M1316.1 940.606V977.541H884.857C890.846 1023.46 908.815 1060.4 936.766 1087.35C964.717 1114.3 1001.65 1128.28 1046.57 1128.28C1079.52 1128.28 1107.47 1120.29 1131.43 1105.32C1155.38 1090.34 1174.35 1069.38 1186.33 1042.43C1191.32 1031.45 1194.32 1026.46 1194.32 1026.46L1298.13 1057.4C1279.17 1110.31 1248.22 1151.24 1204.3 1181.18C1161.37 1211.13 1108.47 1225.11 1046.57 1225.11C963.719 1225.11 896.836 1200.15 848.919 1148.24C800.005 1095.34 775.049 1027.45 775.049 942.602C775.049 855.754 800.005 785.876 848.919 733.967C897.834 681.06 963.719 655.105 1046.57 655.105C1128.43 655.105 1194.32 681.06 1243.23 734.965C1290.15 786.874 1315.1 855.754 1316.1 940.606ZM888.85 882.707H1204.3C1195.31 842.777 1176.35 810.833 1148.4 786.874C1121.44 762.916 1087.5 751.936 1046.57 751.936C1004.65 751.936 969.708 762.916 942.755 786.874C915.803 809.834 897.834 842.777 888.85 882.707Z" fill="white"/>
<path d="M1398.9 1089.35C1378.93 1047.42 1368.95 1002.5 1368.95 948.592C1368.95 859.747 1391.91 788.871 1438.83 736.962C1484.75 685.053 1548.63 659.098 1631.49 659.098C1694.38 659.098 1747.29 675.07 1790.21 707.014C1833.14 738.958 1862.09 784.878 1878.06 844.773L1773.24 871.726C1773.24 871.726 1771.24 863.74 1765.25 849.764C1741.3 786.874 1696.38 755.929 1631.49 755.929C1581.58 755.929 1542.64 772.899 1515.69 807.838C1489.74 842.777 1476.76 889.695 1476.76 948.592C1476.76 1003.5 1489.74 1043.43 1517.69 1077.37C1544.64 1111.31 1582.57 1128.28 1631.49 1128.28C1699.37 1128.28 1745.29 1094.34 1769.25 1027.45C1771.24 1020.47 1776.24 1004.49 1776.24 1004.49L1882.05 1027.45C1867.08 1091.34 1838.13 1141.25 1794.2 1175.2C1749.28 1209.14 1695.38 1225.11 1631.49 1225.11C1575.59 1225.11 1528.67 1213.13 1488.74 1189.17C1448.81 1164.21 1418.86 1131.27 1398.9 1089.35Z" fill="white"/>
<path d="M2074.84 899.677V1216.12H1968.02V488.396H2074.84V733.967C2114.77 684.054 2166.68 659.098 2230.57 659.098C2372.32 659.098 2443.19 736.962 2443.19 894.686V1216.12H2336.38V899.677C2336.38 849.764 2327.4 813.827 2311.42 790.867C2295.45 766.909 2265.5 755.929 2222.58 755.929C2175.66 755.929 2139.72 767.908 2113.77 792.864C2087.82 817.82 2074.84 853.758 2074.84 899.677Z" fill="white"/>
<path d="M2945.67 717.995C2979.61 756.927 2997.58 815.824 2997.58 892.689V1216.12H2889.77V897.681C2889.77 847.768 2881.79 811.831 2865.81 788.871C2849.84 764.913 2819.89 753.932 2776.97 753.932C2731.05 753.932 2696.11 765.911 2673.15 790.867C2649.19 815.824 2637.21 851.761 2637.21 897.681V1216.12H2530.4V669.08H2629.23V739.957C2667.16 686.051 2719.07 659.098 2784.96 659.098C2857.83 659.098 2910.74 679.063 2945.67 717.995Z" fill="white"/>
<path d="M3317.9 1225.11C3238.04 1225.11 3173.15 1200.15 3126.23 1148.24C3079.32 1097.33 3056.36 1031.45 3056.36 943.6C3056.36 855.754 3079.32 786.874 3126.23 734.965C3173.15 684.054 3238.04 659.098 3317.9 659.098C3398.76 659.098 3462.65 684.054 3509.56 735.964C3556.48 786.874 3580.44 856.752 3580.44 943.6C3580.44 1031.45 3556.48 1097.33 3509.56 1148.24C3462.65 1200.15 3398.76 1225.11 3317.9 1225.11ZM3204.1 805.841C3177.14 839.782 3163.17 885.702 3163.17 943.6C3163.17 1002.5 3177.14 1044.42 3204.1 1077.37C3231.05 1111.31 3268.98 1128.28 3317.9 1128.28C3366.81 1128.28 3404.75 1111.31 3431.7 1077.37C3459.65 1043.43 3472.63 1001.5 3472.63 943.6C3472.63 885.702 3459.65 839.782 3431.7 806.84C3404.75 771.901 3366.81 754.93 3317.9 754.93C3268.98 754.93 3231.05 771.901 3204.1 805.841Z" fill="white"/>
<path d="M4685.46 676.155H4792.27V1221.2H4693.44V1145.33C4646.53 1203.23 4589.63 1232.18 4521.74 1232.18C4443.88 1232.18 4381.99 1206.23 4336.07 1155.32C4291.15 1104.41 4268.19 1037.52 4268.19 951.673C4268.19 861.83 4290.15 791.952 4334.07 742.039C4378 691.128 4439.89 666.172 4520.75 666.172C4586.63 666.172 4641.53 688.134 4685.46 733.055V676.155ZM4685.46 951.673V943.687C4685.46 885.788 4670.48 840.867 4642.53 808.922C4613.58 776.978 4574.65 761.006 4526.74 761.006C4477.82 761.006 4440.89 777.977 4414.93 810.919C4388.98 844.86 4376 890.779 4376 949.676C4376 1007.58 4388.98 1051.5 4416.93 1085.44C4443.88 1119.38 4481.81 1136.35 4530.73 1136.35C4579.64 1136.35 4617.58 1120.38 4644.53 1088.43C4671.48 1056.49 4685.46 1011.57 4685.46 951.673Z" fill="white"/>
<path d="M5199.33 774.982H5024.64V1047.51C5024.64 1070.47 5030.63 1089.43 5044.6 1103.41C5057.58 1117.38 5074.55 1124.37 5096.51 1124.37H5199.33V1223.2H5092.52C5038.61 1223.2 4995.69 1207.23 4964.74 1175.28C4932.8 1144.34 4916.83 1101.41 4916.83 1047.51V774.982H4830.98V678.151H4916.83V495.471H5024.64V678.151H5199.33V774.982Z" fill="white"/>
<path d="M5750.7 947.68V984.615H5319.45C5325.44 1030.53 5343.41 1067.47 5371.36 1094.42C5399.31 1121.38 5436.25 1135.35 5481.17 1135.35C5514.11 1135.35 5542.06 1127.37 5566.02 1112.39C5589.98 1097.42 5608.94 1076.45 5620.92 1049.5C5625.91 1038.52 5628.91 1033.53 5628.91 1033.53L5732.73 1064.48C5713.76 1117.38 5682.82 1158.31 5638.89 1188.26C5595.97 1218.21 5543.06 1232.18 5481.17 1232.18C5398.31 1232.18 5331.43 1207.23 5283.51 1155.32C5234.6 1102.41 5209.64 1034.53 5209.64 949.676C5209.64 862.828 5234.6 792.95 5283.51 741.041C5332.43 688.134 5398.31 662.179 5481.17 662.179C5563.02 662.179 5628.91 688.134 5677.82 742.039C5724.74 793.949 5749.7 862.828 5750.7 947.68ZM5323.44 889.781H5638.89C5629.91 849.851 5610.94 817.907 5582.99 793.949C5556.04 769.991 5522.1 759.01 5481.17 759.01C5439.24 759.01 5404.3 769.991 5377.35 793.949C5350.4 816.909 5332.43 849.851 5323.44 889.781Z" fill="white"/>
<path d="M3517.89 495.48H3736.81L4053.55 1217.46H3834.63L3517.89 495.48Z" fill="url(#paint0_linear_206_2)"/>
<path d="M4104.86 495.48H4323.78L4122.84 953.512L4114.64 936.86C4046.42 798.381 4042.84 636.844 4104.86 495.48Z" fill="url(#paint1_linear_206_2)"/>
<defs>
<linearGradient id="paint0_linear_206_2" x1="3785.72" y1="495.48" x2="3785.72" y2="1217.46" gradientUnits="userSpaceOnUse">
<stop stop-color="#6D27F7"/>
<stop offset="1" stop-color="#010232"/>
</linearGradient>
<linearGradient id="paint1_linear_206_2" x1="4192.28" y1="495.48" x2="4192.28" y2="953.512" gradientUnits="userSpaceOnUse">
<stop stop-color="#6D27F7"/>
<stop offset="1" stop-color="#010232"/>
</linearGradient>
</defs>
</svg>