<svg width="403" height="189" viewBox="0 0 403 189" fill="none" xmlns="http://www.w3.org/2000/svg">
<path d="M7.43855 179.131C5.43855 177.9 3.90015 176.362 2.66935 174.362C1.43855 172.362 0.977051 170.054 0.977051 167.593C0.977051 165.131 1.59245 162.823 2.66935 160.823C3.90015 158.823 5.43855 157.131 7.43855 156.054C9.43855 154.823 11.5924 154.362 14.054 154.362C15.9006 154.362 17.7466 154.669 19.2846 155.285C20.9766 155.9 22.2076 156.823 23.2846 158.054L21.1306 160.208C20.3616 159.285 19.2846 158.516 18.0536 157.9C16.8236 157.439 15.4386 157.131 14.054 157.131C12.2078 157.131 10.6694 157.593 9.13095 158.362C7.59245 159.285 6.36164 160.516 5.43864 162.054C4.51554 163.593 4.05395 165.439 4.05395 167.439C4.05395 169.439 4.51554 171.285 5.43864 172.823C6.36164 174.362 7.59245 175.593 9.13095 176.516C10.6694 177.439 12.3616 177.746 14.054 177.746C15.7466 177.746 17.1306 177.439 18.3616 176.977C19.4386 176.516 20.5156 175.746 21.2846 174.823C21.8996 174.208 22.3616 173.285 22.8236 172.362C23.1306 171.439 23.4386 170.362 23.4386 169.285H14.054V166.516H26.2076C26.3616 167.131 26.3616 167.746 26.3616 168.362C26.3616 169.9 26.0537 171.439 25.5927 172.977C25.1307 174.516 24.3616 175.746 23.2846 176.823C20.8236 179.285 17.7466 180.669 13.9001 180.669C11.5924 180.823 9.43855 180.362 7.43855 179.131Z" fill="white"/>
<path d="M33.1306 179.593C31.7466 178.823 30.6696 177.593 29.9006 176.208C29.1306 174.823 28.8236 173.131 28.8236 171.439C28.8236 169.746 29.1306 168.054 29.9006 166.669C30.6696 165.285 31.7466 164.054 33.1306 163.285C34.5156 162.516 36.0536 162.054 37.7466 162.054C39.4386 162.054 40.9766 162.516 42.3616 163.285C43.7466 164.054 44.8236 165.285 45.5926 166.669C46.3616 168.054 46.6696 169.746 46.6696 171.439C46.6696 173.131 46.3616 174.823 45.5926 176.208C44.8236 177.593 43.7466 178.823 42.3616 179.593C40.9766 180.362 39.4386 180.823 37.7466 180.823C36.0536 180.823 34.3616 180.516 33.1306 179.593ZM40.6696 177.285C41.5926 176.669 42.3616 175.9 42.8236 174.977C43.4386 173.9 43.5926 172.823 43.5926 171.439C43.5926 170.054 43.2846 168.977 42.8236 167.9C42.2076 166.823 41.5926 166.054 40.6696 165.593C39.7466 164.977 38.8236 164.823 37.7466 164.823C36.6696 164.823 35.7466 165.131 34.8236 165.593C33.9006 166.208 33.1306 166.977 32.6696 167.9C32.0536 168.977 31.9006 170.054 31.9006 171.439C31.9006 172.823 32.2076 173.9 32.6696 174.977C33.2846 176.054 33.9006 176.823 34.8236 177.285C35.7466 177.9 36.6696 178.054 37.7466 178.054C38.8236 178.208 39.7466 177.9 40.6696 177.285Z" fill="white"/>
<path d="M53.1306 179.593C51.7466 178.823 50.6696 177.593 49.9006 176.208C49.1306 174.823 48.8236 173.131 48.8236 171.439C48.8236 169.746 49.1306 168.054 49.9006 166.669C50.6696 165.285 51.7466 164.054 53.1306 163.285C54.5156 162.516 56.0536 162.054 57.7466 162.054C59.4386 162.054 60.9766 162.516 62.3616 163.285C63.7466 164.054 64.8236 165.285 65.5926 166.669C66.3616 168.054 66.6696 169.746 66.6696 171.439C66.6696 173.131 66.3616 174.823 65.5926 176.208C64.8236 177.593 63.7466 178.823 62.3616 179.593C60.9766 180.362 59.4386 180.823 57.7466 180.823C56.0536 180.823 54.5156 180.516 53.1306 179.593ZM60.8236 177.285C61.7466 176.669 62.5156 175.9 62.9766 174.977C63.5926 173.9 63.7466 172.823 63.7466 171.439C63.7466 170.054 63.4386 168.977 62.9766 167.9C62.3616 166.823 61.7466 166.054 60.8236 165.593C59.9006 164.977 58.9766 164.823 57.9006 164.823C56.8236 164.823 55.9006 165.131 54.9766 165.593C54.0536 166.208 53.2846 166.977 52.8236 167.9C52.2076 168.977 52.0536 170.054 52.0536 171.439C52.0536 172.823 52.3616 173.9 52.8236 174.977C53.4386 176.054 54.0536 176.823 54.9766 177.285C55.9006 177.9 56.8236 178.054 57.9006 178.054C58.8236 178.208 59.9006 177.9 60.8236 177.285Z" fill="white"/>
<path d="M72.3616 186.977C70.9766 185.9 70.0536 184.823 69.5926 183.439L72.3616 182.208C72.6696 183.285 73.2846 184.054 74.2076 184.67C75.1306 185.285 76.2076 185.593 77.4386 185.593C79.2846 185.593 80.6696 184.977 81.7466 183.9C82.8236 182.823 83.2846 181.285 83.2846 179.285V177.439H83.1306C82.5156 178.362 81.7466 179.131 80.6696 179.746C79.5926 180.362 78.3616 180.67 77.1306 180.67C75.5926 180.67 74.2076 180.208 72.9766 179.439C71.7466 178.67 70.6696 177.593 69.9006 176.054C69.1306 174.67 68.8236 172.977 68.8236 171.285C68.8236 169.439 69.1306 167.9 69.9006 166.516C70.6696 165.131 71.7466 163.9 72.9766 163.131C74.2076 162.362 75.5926 161.9 77.1306 161.9C78.5156 161.9 79.7466 162.208 80.6696 162.823C81.7466 163.439 82.5156 164.208 83.1306 165.131H83.2846V162.516H86.2076V179.439C86.2076 181.439 85.9006 182.977 85.1306 184.362C84.3616 185.746 83.2846 186.67 82.0536 187.439C80.6696 188.054 79.2846 188.362 77.5926 188.362C75.4386 188.516 73.7466 188.054 72.3616 186.977ZM80.5156 177.285C81.4386 176.823 82.0536 176.054 82.6696 174.977C83.1306 174.054 83.4386 172.823 83.4386 171.439C83.4386 170.054 83.1306 168.977 82.6696 167.9C82.2076 166.823 81.4386 166.054 80.5156 165.593C79.5926 165.131 78.6696 164.823 77.5926 164.823C76.5156 164.823 75.5926 165.131 74.6696 165.593C73.7466 166.054 73.1306 166.823 72.5156 167.9C72.0536 168.823 71.7466 170.054 71.7466 171.439C71.7466 172.823 72.0536 173.9 72.5156 174.977C72.9776 175.9 73.7466 176.67 74.6696 177.285C75.5926 177.746 76.5156 178.054 77.5926 178.054C78.6696 178.208 79.5926 177.9 80.5156 177.285Z" fill="white"/>
<path d="M92.9776 154.977H89.9006V180.362H92.9776V154.977Z" fill="white"/>
<path d="M99.8996 179.593C98.5156 178.823 97.5926 177.746 96.8226 176.208C96.0536 174.823 95.7456 173.131 95.7456 171.439C95.7456 169.746 96.0536 168.208 96.8226 166.669C97.5926 165.285 98.5156 164.054 99.8996 163.285C101.285 162.516 102.67 162.054 104.362 162.054C106.054 162.054 107.593 162.362 108.823 163.131C110.054 163.9 111.131 164.977 111.747 166.362C112.362 167.746 112.823 169.285 112.823 171.131C112.823 171.439 112.823 171.746 112.823 171.9H98.8226C98.8226 173.285 99.1306 174.362 99.7456 175.285C100.362 176.208 101.131 176.823 101.9 177.285C102.823 177.746 103.746 177.9 104.67 177.9C106.823 177.9 108.67 176.823 109.746 174.669L112.362 175.9C111.593 177.285 110.516 178.516 109.285 179.285C107.9 180.208 106.362 180.516 104.516 180.516C102.823 180.823 101.285 180.516 99.8996 179.593ZM109.593 169.593C109.593 168.823 109.285 168.208 108.977 167.439C108.67 166.669 108.054 166.054 107.285 165.593C106.516 165.131 105.439 164.823 104.208 164.823C102.823 164.823 101.746 165.285 100.823 166.054C99.8996 166.977 99.2846 168.054 98.9766 169.439H109.593V169.593Z" fill="white"/>
<path d="M124.208 154.977H131.901C134.516 154.977 136.824 155.593 138.67 156.516C140.67 157.593 142.055 159.131 143.131 160.977C144.208 162.823 144.67 165.131 144.67 167.593C144.67 170.054 144.208 172.208 143.131 174.208C142.055 176.054 140.67 177.593 138.67 178.67C136.67 179.746 134.516 180.208 131.901 180.208H124.208V154.977ZM131.901 177.439C134.824 177.439 137.285 176.516 138.978 174.823C140.67 173.131 141.593 170.67 141.593 167.593C141.593 164.516 140.67 162.054 138.978 160.362C137.285 158.67 134.824 157.746 131.901 157.746H127.285V177.439H131.901Z" fill="white"/>
<path d="M151.593 179.593C150.208 178.823 149.285 177.746 148.516 176.208C147.747 174.823 147.439 173.131 147.439 171.439C147.439 169.746 147.747 168.208 148.516 166.669C149.285 165.285 150.208 164.054 151.593 163.285C152.977 162.516 154.362 162.054 156.054 162.054C157.747 162.054 159.285 162.362 160.516 163.131C161.747 163.9 162.823 164.977 163.439 166.362C164.054 167.746 164.516 169.285 164.516 171.131C164.516 171.439 164.516 171.746 164.516 171.9H150.516C150.516 173.285 150.823 174.362 151.439 175.285C152.054 176.208 152.823 176.823 153.593 177.285C154.516 177.746 155.439 177.9 156.362 177.9C158.516 177.9 160.362 176.823 161.439 174.669L164.054 175.9C163.285 177.285 162.208 178.516 160.977 179.285C159.593 180.208 158.054 180.516 156.208 180.516C154.516 180.823 152.977 180.516 151.593 179.593ZM161.285 169.593C161.285 168.823 160.977 168.208 160.67 167.439C160.362 166.669 159.747 166.054 158.977 165.593C158.208 165.131 157.131 164.823 155.9 164.823C154.516 164.823 153.439 165.285 152.516 166.054C151.593 166.977 150.977 168.054 150.67 169.439H161.285V169.593Z" fill="white"/>
<path d="M165.131 162.67H168.362L173.747 176.823H173.9L179.285 162.67H182.516L175.285 180.362H172.208L165.131 162.67Z" fill="white"/>
<path d="M188.055 179.593C186.67 178.823 185.747 177.746 184.978 176.208C184.208 174.823 183.901 173.131 183.901 171.439C183.901 169.746 184.208 168.208 184.978 166.669C185.747 165.285 186.67 164.054 188.055 163.285C189.439 162.516 190.824 162.054 192.516 162.054C194.208 162.054 195.747 162.362 196.978 163.131C198.208 163.9 199.285 164.977 199.901 166.362C200.516 167.746 200.978 169.285 200.978 171.131C200.978 171.439 200.978 171.746 200.978 171.9H186.824C186.824 173.285 187.132 174.362 187.747 175.285C188.362 176.208 189.132 176.823 189.901 177.285C190.824 177.746 191.747 177.9 192.67 177.9C194.824 177.9 196.67 176.823 197.747 174.669L200.362 175.9C199.593 177.285 198.516 178.516 197.285 179.285C195.901 180.208 194.362 180.516 192.516 180.516C190.824 180.823 189.285 180.516 188.055 179.593ZM197.593 169.593C197.593 168.823 197.285 168.208 196.978 167.439C196.67 166.669 196.055 166.054 195.285 165.593C194.516 165.131 193.439 164.823 192.208 164.823C190.824 164.823 189.747 165.285 188.824 166.054C187.901 166.977 187.285 168.054 186.978 169.439H197.593V169.593Z" fill="white"/>
<path d="M206.978 154.977H203.901V180.362H206.978V154.977Z" fill="white"/>
<path d="M214.054 179.593C212.67 178.823 211.593 177.593 210.823 176.208C210.054 174.823 209.746 173.131 209.746 171.439C209.746 169.746 210.054 168.054 210.823 166.669C211.593 165.285 212.67 164.054 214.054 163.285C215.439 162.516 216.977 162.054 218.67 162.054C220.362 162.054 221.9 162.516 223.285 163.285C224.67 164.054 225.746 165.285 226.516 166.669C227.285 168.054 227.593 169.746 227.593 171.439C227.593 173.131 227.285 174.823 226.516 176.208C225.746 177.593 224.67 178.823 223.285 179.593C221.9 180.362 220.362 180.823 218.67 180.823C216.977 180.823 215.439 180.516 214.054 179.593ZM221.746 177.285C222.67 176.669 223.439 175.9 223.9 174.977C224.516 173.9 224.67 172.823 224.67 171.439C224.67 170.054 224.362 168.977 223.9 167.9C223.285 166.823 222.67 166.054 221.746 165.593C220.823 164.977 219.9 164.823 218.823 164.823C217.746 164.823 216.823 165.131 215.9 165.593C214.977 166.208 214.208 166.977 213.746 167.9C213.131 168.977 212.977 170.054 212.977 171.439C212.977 172.823 213.285 173.9 213.746 174.977C214.362 176.054 214.977 176.823 215.9 177.285C216.823 177.9 217.746 178.054 218.823 178.054C219.746 178.208 220.823 177.9 221.746 177.285Z" fill="white"/>
<path d="M230.516 162.669H233.439V165.285H233.593C234.208 164.362 234.978 163.593 236.054 162.977C237.131 162.362 238.362 162.054 239.747 162.054C241.285 162.054 242.67 162.516 243.901 163.285C245.131 164.054 246.208 165.285 246.977 166.669C247.747 168.054 248.054 169.746 248.054 171.439C248.054 173.285 247.747 174.823 246.977 176.208C246.208 177.593 245.131 178.669 243.901 179.593C242.67 180.362 241.285 180.823 239.747 180.823C238.362 180.823 237.131 180.516 236.054 179.9C234.978 179.285 234.208 178.516 233.593 177.593H233.439L233.593 180.054V187.9H230.516V162.669ZM242.054 177.285C242.978 176.669 243.593 175.9 244.208 174.977C244.67 173.9 244.977 172.823 244.977 171.439C244.977 170.054 244.67 168.977 244.208 167.9C243.747 166.823 242.978 166.054 242.054 165.593C241.131 164.977 240.208 164.823 239.131 164.823C238.054 164.823 237.131 165.131 236.208 165.593C235.285 166.054 234.67 166.823 234.054 167.9C233.593 168.977 233.285 170.054 233.285 171.439C233.285 172.823 233.593 173.9 234.054 174.977C234.516 176.054 235.285 176.823 236.208 177.285C237.131 177.746 238.054 178.054 239.131 178.054C240.208 178.208 241.131 177.9 242.054 177.285Z" fill="white"/>
<path d="M254.977 179.593C253.593 178.823 252.67 177.746 251.901 176.208C251.131 174.823 250.824 173.131 250.824 171.439C250.824 169.746 251.131 168.208 251.901 166.669C252.67 165.285 253.593 164.054 254.977 163.285C256.362 162.516 257.747 162.054 259.439 162.054C261.131 162.054 262.67 162.362 263.901 163.131C265.131 163.9 266.208 164.977 266.824 166.362C267.439 167.746 267.901 169.285 267.901 171.131C267.901 171.439 267.901 171.746 267.901 171.9H253.901C253.901 173.285 254.208 174.362 254.824 175.285C255.439 176.208 256.208 176.823 256.977 177.285C257.901 177.746 258.824 177.9 259.747 177.9C261.901 177.9 263.747 176.823 264.824 174.669L267.439 175.9C266.67 177.285 265.593 178.516 264.362 179.285C262.978 180.208 261.439 180.516 259.593 180.516C257.901 180.823 256.362 180.516 254.977 179.593ZM264.67 169.593C264.67 168.823 264.362 168.208 264.054 167.439C263.747 166.669 263.131 166.054 262.362 165.593C261.593 165.131 260.516 164.823 259.285 164.823C257.901 164.823 256.824 165.285 255.901 166.054C254.978 166.977 254.362 168.054 254.054 169.439H264.67V169.593Z" fill="white"/>
<path d="M270.824 162.67H273.747V165.593H273.901C274.208 164.67 274.978 163.746 275.901 163.131C276.978 162.516 277.901 162.208 278.978 162.208C279.747 162.208 280.362 162.362 280.978 162.516V165.747C280.362 165.439 279.439 165.285 278.516 165.285C277.747 165.285 276.977 165.593 276.208 166.054C275.439 166.516 274.978 167.131 274.516 168.054C274.054 168.823 273.901 169.747 273.901 170.67V180.516H270.824V162.67Z" fill="white"/>
<path d="M296.516 179.131C294.516 177.9 292.978 176.362 291.747 174.362C290.516 172.362 290.055 170.054 290.055 167.593C290.055 165.131 290.67 162.823 291.747 160.823C292.978 158.823 294.516 157.131 296.516 156.054C298.516 154.823 300.67 154.362 303.132 154.362C304.978 154.362 306.824 154.669 308.362 155.285C310.055 155.9 311.285 156.823 312.362 158.054L310.208 160.208C309.439 159.285 308.362 158.516 307.132 157.9C305.901 157.439 304.516 157.131 303.132 157.131C301.285 157.131 299.747 157.593 298.209 158.362C296.67 159.285 295.439 160.516 294.516 162.054C293.593 163.593 293.132 165.439 293.132 167.439C293.132 169.439 293.593 171.285 294.516 172.823C295.439 174.362 296.67 175.593 298.209 176.516C299.747 177.439 301.439 177.746 303.132 177.746C304.824 177.746 306.209 177.439 307.439 176.977C308.516 176.516 309.593 175.746 310.362 174.823C310.978 174.208 311.439 173.285 311.901 172.362C312.208 171.439 312.516 170.362 312.516 169.285H303.132V166.516H315.285C315.439 167.131 315.439 167.746 315.439 168.362C315.439 169.9 315.132 171.439 314.67 172.977C314.208 174.516 313.439 175.746 312.362 176.823C309.901 179.285 306.824 180.669 302.978 180.669C300.824 180.823 298.516 180.362 296.516 179.131Z" fill="white"/>
<path d="M318.977 162.67H321.9V165.593H322.054C322.362 164.67 323.131 163.746 324.054 163.131C325.131 162.516 326.054 162.208 327.131 162.208C327.9 162.208 328.516 162.362 329.131 162.516V165.747C328.516 165.439 327.593 165.285 326.67 165.285C325.901 165.285 325.131 165.593 324.362 166.054C323.593 166.516 323.131 167.131 322.67 168.054C322.208 168.823 322.054 169.747 322.054 170.67V180.516H318.977V162.67Z" fill="white"/>
<path d="M333.9 179.593C332.516 178.823 331.439 177.593 330.67 176.208C329.9 174.823 329.593 173.131 329.593 171.439C329.593 169.746 329.9 168.054 330.67 166.669C331.439 165.285 332.516 164.054 333.9 163.285C335.285 162.516 336.823 162.054 338.516 162.054C340.208 162.054 341.746 162.516 343.131 163.285C344.516 164.054 345.593 165.285 346.362 166.669C347.131 168.054 347.439 169.746 347.439 171.439C347.439 173.131 347.131 174.823 346.362 176.208C345.593 177.593 344.516 178.823 343.131 179.593C341.746 180.362 340.208 180.823 338.516 180.823C336.823 180.823 335.285 180.516 333.9 179.593ZM341.593 177.285C342.516 176.669 343.285 175.9 343.747 174.977C344.362 173.9 344.516 172.823 344.516 171.439C344.516 170.054 344.208 168.977 343.747 167.9C343.131 166.823 342.516 166.054 341.593 165.593C340.67 164.977 339.747 164.823 338.67 164.823C337.593 164.823 336.67 165.131 335.746 165.593C334.823 166.208 334.054 166.977 333.593 167.9C332.977 168.977 332.823 170.054 332.823 171.439C332.823 172.823 333.131 173.9 333.593 174.977C334.208 176.054 334.823 176.823 335.746 177.285C336.67 177.9 337.593 178.054 338.67 178.054C339.593 178.208 340.67 177.9 341.593 177.285Z" fill="white"/>
<path d="M352.055 178.977C350.978 177.747 350.362 176.054 350.362 173.747V162.67H353.439V173.285C353.439 176.516 354.824 178.208 357.747 178.208C358.67 178.208 359.593 177.9 360.362 177.439C361.131 176.823 361.747 176.208 362.208 175.285C362.67 174.362 362.824 173.439 362.824 172.516V162.823H365.747V180.362H362.978V177.746H362.824C362.362 178.67 361.593 179.439 360.516 180.054C359.439 180.67 358.362 180.977 357.131 180.977C354.824 180.823 353.131 180.208 352.055 178.977Z" fill="white"/>
<path d="M369.593 162.669H372.516V165.285H372.67C373.285 164.362 374.054 163.593 375.131 162.977C376.208 162.362 377.439 162.054 378.823 162.054C380.362 162.054 381.747 162.516 382.977 163.285C384.208 164.054 385.285 165.285 386.054 166.669C386.823 168.054 387.131 169.746 387.131 171.439C387.131 173.285 386.823 174.823 386.054 176.208C385.285 177.593 384.208 178.669 382.977 179.593C381.747 180.362 380.362 180.823 378.823 180.823C377.439 180.823 376.208 180.516 375.131 179.9C374.054 179.285 373.285 178.516 372.67 177.593H372.516L372.67 180.054V187.9H369.593V162.669ZM381.131 177.285C382.054 176.669 382.67 175.9 383.285 174.977C383.747 173.9 384.054 172.823 384.054 171.439C384.054 170.054 383.747 168.977 383.285 167.9C382.823 166.823 382.054 166.054 381.131 165.593C380.208 164.977 379.285 164.823 378.208 164.823C377.131 164.823 376.208 165.131 375.285 165.593C374.362 166.054 373.746 166.823 373.131 167.9C372.67 168.977 372.362 170.054 372.362 171.439C372.362 172.823 372.67 173.9 373.131 174.977C373.593 176.054 374.362 176.823 375.285 177.285C376.208 177.746 377.131 178.054 378.208 178.054C379.285 178.208 380.362 177.9 381.131 177.285Z" fill="white"/>
<path d="M391.439 179.439C390.208 178.516 389.285 177.285 388.67 175.9L391.285 174.67C391.747 175.746 392.362 176.67 393.285 177.285C394.208 177.9 395.131 178.208 396.054 178.208C397.131 178.208 398.054 177.9 398.824 177.439C399.593 176.977 399.901 176.362 399.901 175.593C399.901 174.977 399.593 174.362 399.131 173.9C398.516 173.439 397.593 173.131 396.208 172.67L393.747 172.054C392.362 171.746 391.285 171.131 390.362 170.362C389.439 169.593 388.978 168.516 388.978 167.131C388.978 166.054 389.285 165.131 389.901 164.362C390.516 163.593 391.285 162.977 392.362 162.516C393.439 162.054 394.516 161.9 395.747 161.9C397.285 161.9 398.67 162.208 399.901 162.977C401.131 163.747 402.054 164.67 402.516 165.9L399.901 166.977C399.593 166.054 398.978 165.439 398.208 165.131C397.439 164.67 396.516 164.516 395.593 164.516C394.67 164.516 393.901 164.67 393.131 165.131C392.362 165.593 392.054 166.208 392.054 166.823C392.054 167.439 392.362 167.9 392.824 168.208C393.285 168.516 394.054 168.823 395.131 169.131L397.747 169.746C399.439 170.208 400.824 170.823 401.593 171.746C402.516 172.67 402.824 173.746 402.824 174.977C402.824 176.054 402.516 176.977 401.901 177.746C401.285 178.516 400.516 179.285 399.439 179.746C398.362 180.208 397.131 180.516 395.901 180.516C394.362 180.823 392.67 180.362 391.439 179.439Z" fill="white"/>
<path d="M149.623 51.0839L183.724 31.2683C191.558 26.6599 194.323 16.5218 189.715 8.22691C185.107 0.392878 174.968 -2.3721 166.674 2.23614L107.688 36.3374L149.623 51.0839Z" fill="#EA4335"/>
<path d="M174.968 101.314C180.959 101.314 186.489 98.0881 189.254 93.0187C193.862 85.1849 191.097 74.5858 183.263 69.9774L124.277 35.8763C116.443 31.2683 105.844 34.033 101.236 41.8671C96.6279 49.7012 99.3929 60.3003 107.227 64.9084L166.213 99.0094C169.438 100.853 172.203 101.314 174.968 101.314Z" fill="#4285F4"/>
<path d="M233.492 101.314C236.257 101.314 239.022 100.392 241.787 99.0094L300.773 64.9083L259.76 49.7011L225.198 69.5167C217.363 74.1251 214.598 84.2632 219.207 92.558C222.433 98.5487 227.963 101.314 233.492 101.314Z" fill="#FBBC04"/>
<path d="M292.478 67.6734C298.469 67.6734 303.999 64.4477 306.764 59.3786C311.372 51.5446 308.607 40.9454 300.773 36.3374L241.787 2.23616C233.953 -2.37212 223.354 0.392871 218.746 8.2269C214.138 16.0609 216.903 26.6599 224.737 31.2683L283.722 65.3694C286.487 66.7517 289.713 67.6734 292.478 67.6734Z" fill="#0F9D58"/>
</svg>
